<?xml version="1.0" encoding="UTF-8" standalone="no"?>
<svg
   xmlns:dc="http://purl.org/dc/elements/1.1/"
   xmlns:cc="http://creativecommons.org/ns#"
   xmlns:rdf="http://www.w3.org/1999/02/22-rdf-syntax-ns#"
   xmlns:svg="http://www.w3.org/2000/svg"
   xmlns="http://www.w3.org/2000/svg"
   xmlns:sodipodi="http://sodipodi.sourceforge.net/DTD/sodipodi-0.dtd"
   xmlns:inkscape="http://www.inkscape.org/namespaces/inkscape"
   width="210mm"
   height="297mm"
   viewBox="0 0 210 297"
   version="1.1"
   id="svg856"
   inkscape:version="1.0.2-2 (e86c870879, 2021-01-15)"
   sodipodi:docname="Gloves.svg">
  <defs
     id="defs850" />
  <sodipodi:namedview
     id="base"
     pagecolor="#ffffff"
     bordercolor="#666666"
     borderopacity="1.0"
     inkscape:pageopacity="0.0"
     inkscape:pageshadow="2"
     inkscape:zoom="0.47405683"
     inkscape:cx="25.56859"
     inkscape:cy="746.645"
     inkscape:document-units="mm"
     inkscape:current-layer="layer1"
     inkscape:document-rotation="0"
     showgrid="false"
     inkscape:window-width="1920"
     inkscape:window-height="1001"
     inkscape:window-x="-9"
     inkscape:window-y="-9"
     inkscape:window-maximized="1" />
  <metadata
     id="metadata853">
    <rdf:RDF>
      <cc:Work
         rdf:about="">
        <dc:format>image/svg+xml</dc:format>
        <dc:type
           rdf:resource="http://purl.org/dc/dcmitype/StillImage" />
        <dc:title></dc:title>
      </cc:Work>
    </rdf:RDF>
  </metadata>
  <g
     inkscape:groupmode="layer"
     id="layer4"
     inkscape:label="Top"
     style="display:none"
     sodipodi:insensitive="true">
    <path
       style="fill:none;stroke:#ff0000;stroke-width:0.1;stroke-linecap:butt;stroke-linejoin:miter;stroke-miterlimit:4;stroke-dasharray:none;stroke-opacity:1"
       d="m 158.78918,265.58427 -105.508614,-0.0324 c -7.614495,-57.85584 -6.611295,-46.30902 -8.807844,-79.25047 0.956641,-12.37134 -2.800375,-54.09482 8.999894,-83.65979 7.006895,-17.929447 20.251424,-49.829556 52.606644,-50.804932 27.30953,2.743178 36.60113,13.488731 42.7565,23.323396 7.37195,34.607416 10.34631,74.099356 15.53072,106.519236 -0.99219,27.33962 -2.6285,58.52198 -5.5773,83.905 z"
       id="path2004"
       sodipodi:nodetypes="ccccccccc" />
    <path
       style="fill:none;stroke:#000000;stroke-width:0.1;stroke-linecap:butt;stroke-linejoin:miter;stroke-miterlimit:4;stroke-dasharray:none;stroke-opacity:1"
       d="m 106.07959,46.336678 -3.3e-4,5.5"
       id="path2050"
       sodipodi:nodetypes="cc" />
    <path
       id="path2004-0"
       style="display:inline;fill:none;stroke:#ff0000;stroke-width:0.0915967;stroke-linecap:butt;stroke-linejoin:miter;stroke-miterlimit:4;stroke-dasharray:none;stroke-opacity:1"
       d="m 105.83008,46.341797 c -9.01397,0.247182 -17.9664,2.933067 -25.525557,7.872415 -9.781834,6.309667 -17.097158,15.760857 -22.648108,25.86219 -4.209097,7.653982 -7.528233,15.759593 -10.569414,23.936048 -4.57814,13.08528 -6.448662,26.93924 -7.36237,40.71824 -0.791127,11.9646 -0.594413,23.96027 -0.577067,35.94234 0.02366,1.99933 -0.122236,3.99887 -0.163189,5.99299 0.799833,11.62888 1.385236,23.28446 2.91739,34.84799 2.10839,16.31496 4.339323,32.61378 6.479775,48.92476 -0.17572,0.89215 0.722656,0.55849 1.281351,0.6125 38.016015,0.0125 76.032029,0.022 114.048049,0.0347 1.35401,-11.63414 2.48263,-23.29449 3.31569,-34.97776 1.3227,-18.26053 2.21008,-36.55567 2.84252,-54.84953 -0.34791,-2.18494 -0.68561,-4.37143 -1.01368,-6.55943 -0.0644,-0.48091 -0.18864,-1.32044 -0.27598,-1.93875 -0.20212,-1.39948 -0.43121,-3.02938 -0.6166,-4.28586 -0.34626,-2.57939 -0.71369,-5.19977 -1.03493,-7.69734 C 163.07059,131.48035 160.1952,101.9956 154.01758,73.060547 150.66522,67.5568 146.61926,62.385534 141.4784,58.441326 133.74688,52.396245 124.21293,49.157224 114.64175,47.4673 c -2.87503,-0.485026 -5.7716,-0.930723 -8.67777,-1.131535 l -0.0999,0.0045 z" />
    <path
       style="fill:none;stroke:#000000;stroke-width:0.1;stroke-linecap:butt;stroke-linejoin:miter;stroke-miterlimit:4;stroke-dasharray:none;stroke-opacity:1"
       d="m 80.97598,200.55813 h 53.98 v 53.98 h -53.98 z"
       id="path929"
       sodipodi:nodetypes="ccccc" />
    <text
       xml:space="preserve"
       style="font-style:normal;font-weight:normal;font-size:10.5833px;line-height:1.25;font-family:sans-serif;fill:#000000;fill-opacity:1;stroke:none;stroke-width:0.264583"
       x="93.765114"
       y="225.4828"
       id="text933"><tspan
         sodipodi:role="line"
         id="tspan931"
         x="93.765114"
         y="225.4828"
         style="stroke-width:0.264583">53.98</tspan><tspan
         sodipodi:role="line"
         x="93.765114"
         y="238.71193"
         style="stroke-width:0.264583"
         id="tspan935"> ReF</tspan></text>
  </g>
  <g
     inkscape:groupmode="layer"
     id="layer1"
     inkscape:label="PartA R2">
    <path
       style="display:inline;fill:none;stroke:#000000;stroke-width:0.1;stroke-linecap:butt;stroke-linejoin:miter;stroke-miterlimit:4;stroke-dasharray:none;stroke-opacity:1"
       d="M 158.78918,265.58427 H 47.714729 C 40.100234,207.72843 39.460545,205.27174 39.1338,181.67931 39.054978,154.86575 45.590144,94.939187 54.86793,75.607775 59.398821,67.55866 66.64885,39.06105 106.07931,35 c 31.9885,2.369546 37.63268,18.451647 42.75645,25.755179 6.98124,14.573428 13.8018,70.794861 15.53072,120.924131 -0.99219,27.33962 -2.6285,58.52198 -5.5773,83.905 z"
       id="path2004-8"
       sodipodi:nodetypes="ccccccccc" />
    <path
       style="display:inline;fill:none;stroke:#000000;stroke-width:0.1;stroke-linecap:butt;stroke-linejoin:miter;stroke-miterlimit:4;stroke-dasharray:none;stroke-opacity:1"
       d="m 106.07959,46.33668 -3.3e-4,5.5"
       id="path2050-9"
       sodipodi:nodetypes="cc" />
    <path
       style="font-variation-settings:normal;opacity:1;vector-effect:none;fill:none;fill-opacity:1;stroke:#000000;stroke-width:0.1;stroke-linecap:butt;stroke-linejoin:miter;stroke-miterlimit:4;stroke-dasharray:none;stroke-dashoffset:0;stroke-opacity:1;stop-color:#000000;stop-opacity:1"
       d="m 164.36648,181.67931 -125.23268,0"
       id="path984"
       sodipodi:nodetypes="cc" />
    <path
       style="font-variation-settings:normal;vector-effect:none;fill:none;fill-opacity:1;stroke:#000000;stroke-width:0.1;stroke-linecap:butt;stroke-linejoin:miter;stroke-miterlimit:4;stroke-dasharray:none;stroke-dashoffset:0;stroke-opacity:1;stop-color:#000000"
       d="m 158.78918,265.58427 -111.074451,0"
       id="path984-2"
       sodipodi:nodetypes="cc" />
    <path
       style="font-variation-settings:normal;opacity:1;vector-effect:none;fill:none;fill-opacity:1;stroke:#000000;stroke-width:0.1;stroke-linecap:butt;stroke-linejoin:miter;stroke-miterlimit:4;stroke-dasharray:none;stroke-dashoffset:0;stroke-opacity:1;stop-color:#000000;stop-opacity:1"
       d="m 106.07931,35 -5e-5,16.836678"
       id="path1006"
       sodipodi:nodetypes="cc" />
  </g>
  <g
     inkscape:groupmode="layer"
     id="layer5"
     inkscape:label="Bottom1"
     style="display:none"
     sodipodi:insensitive="true">
    <path
       style="fill:none;stroke:#0000ff;stroke-width:0.0911424;stroke-linecap:butt;stroke-linejoin:miter;stroke-miterlimit:4;stroke-dasharray:none;stroke-opacity:1"
       d="m 164.36648,181.67931 -61.14256,-3.1e-4 c -5.613487,0.5641 -8.809925,3.42346 -11.749174,6.4347 -2.211409,3.07435 -3.227877,5.80728 -3.840964,8.42496 v 21.70705 c -2.083528,9.07186 -5.05785,14.26676 -8.038662,17.3962 -3.989247,2.39158 -7.606112,5.23831 -13.570021,5.21642 -10.463678,-1.76186 -12.376974,-3.62068 -15.260415,-6.63366 -3.549341,-4.89207 -4.858479,-10.39699 -5.760176,-15.76239 -1.076,-18.21566 0.03514,-36.78328 0.03514,-36.78328 -0.6582,-31.31676 1.520316,-56.06477 5.237844,-69.39243 5.098993,-17.88571 16.237553,-39.76271 24.811105,-46.98519 2.96228,-2.201697 11.056915,-12.029144 30.990663,-13.464702 8.44229,1.129276 29.85203,2.018189 42.7565,23.323396 6.66662,33.948796 10.32194,72.430516 15.53073,106.519236 z"
       id="path848"
       sodipodi:nodetypes="cccccccccccccccc" />
    <path
       style="display:inline;fill:none;stroke:#000000;stroke-width:0.1;stroke-linecap:butt;stroke-linejoin:miter;stroke-miterlimit:4;stroke-dasharray:none;stroke-opacity:1"
       d="m 106.07959,46.437887 -3.3e-4,5.398791"
       id="path2050-7"
       sodipodi:nodetypes="cc" />
    <path
       id="path848-5"
       style="display:inline;fill:none;stroke:#0000ff;stroke-width:0.0911424;stroke-linecap:butt;stroke-linejoin:miter;stroke-miterlimit:4;stroke-dasharray:none;stroke-opacity:1"
       d="m 105.60156,46.357422 c -9.403477,0.667938 -18.807505,3.371002 -26.624285,8.752025 -3.082247,2.071352 -5.805074,4.611848 -8.603686,7.036408 -4.705704,4.554039 -8.252034,10.137858 -11.508953,15.776711 -5.551877,9.855486 -10.049324,20.312104 -13.368542,31.126264 -2.554773,8.53598 -3.683524,17.4166 -4.570195,26.25784 -1.450959,15.4457 -1.667715,30.98065 -1.401353,46.48289 -0.603833,12.45524 -0.714485,24.94963 0.02219,37.4007 1.003465,6.22997 2.717523,12.52126 6.400634,17.73834 0.953367,1.41146 2.261751,2.54957 3.535048,3.66906 3.999037,3.32312 9.22476,4.49174 14.2111,5.43283 1.293172,0.29889 2.608456,0.41419 3.931593,0.27655 4.544521,-0.23838 8.804552,-2.1439 12.580507,-4.58161 1.026947,-0.69456 2.188299,-1.2239 3.129668,-2.02101 4.945722,-5.13993 7.600025,-11.98959 9.313328,-18.80071 0.280591,-1.10505 0.601633,-2.20514 0.484195,-3.35762 0.0166,-6.80246 -0.03318,-13.6133 0.02486,-20.41053 0.560532,-2.03352 1.419738,-4.04136 2.755633,-5.68363 1.975509,-2.07006 4.425648,-3.91952 7.357398,-4.23474 4.06117,-0.0877 8.13257,-0.0124 12.19766,-0.0375 18.42656,0 36.85312,0 55.27969,0 -1.983,-12.98554 -3.80272,-25.99533 -5.47075,-39.02504 -3.28977,-25.07414 -6.34875,-50.206424 -11.23238,-75.033556 -3.81829,-6.481184 -8.91304,-12.256011 -15.13765,-16.51564 -7.59807,-5.2863 -16.62851,-8.159093 -25.73703,-9.418831 -2.39146,-0.30998 -4.7912,-0.652628 -7.18784,-0.862541 -0.12694,0.01111 -0.25389,0.02223 -0.38084,0.03334 z" />
  </g>
  <g
     inkscape:groupmode="layer"
     id="layer2"
     inkscape:label="Bottom2"
     style="display:none"
     sodipodi:insensitive="true">
    <path
       style="display:inline;fill:none;stroke:#ff00ff;stroke-width:0.1;stroke-linecap:butt;stroke-linejoin:miter;stroke-miterlimit:4;stroke-dasharray:none;stroke-opacity:1"
       d="m 164.36653,181.67931 -61.14261,-1.1e-4 c -5.613493,-0.5641 -8.809938,-3.42316 -11.749191,-6.43441 -2.211408,-3.07433 -3.227878,-5.80717 -3.840962,-8.42484 v -21.70708 c -2.083534,-9.07186 -5.057865,-14.26676 -8.03867,-17.39621 -3.989256,-2.39159 -7.606118,-5.23831 -13.570034,-5.21643 -10.463685,1.76187 -12.376985,3.62068 -15.260431,6.63367 -3.549343,4.89208 -4.858477,10.39699 -5.760177,15.7624 -1.137038,18.17208 -0.531733,41.4051 -0.531733,41.4051 1.1237,29.51827 8.952019,78.85399 8.807844,79.25047 l 105.508614,0.0324 c 5.37497,-53.15853 5.57736,-83.90497 5.57736,-83.90497 z"
       id="path848-8"
       sodipodi:nodetypes="cccccccccccccc" />
    <path
       id="path848-8-6"
       style="display:inline;fill:none;stroke:#ff00ff;stroke-width:0.1;stroke-linecap:butt;stroke-linejoin:miter;stroke-miterlimit:4;stroke-dasharray:none;stroke-opacity:1"
       d="m 65.060547,117.08594 c -4.927636,0.8905 -10.059408,1.83658 -14.279009,4.70073 -1.681721,1.16907 -3.195042,2.59825 -4.502928,4.16555 -3.764326,5.15088 -5.610903,11.40486 -6.627123,17.63131 -0.302856,2.12398 -0.286497,4.28636 -0.418931,6.4279 -0.513231,12.33611 -0.519186,24.6912 -0.231932,37.033 0.667135,15.12722 2.385727,30.18334 4.223828,45.20585 1.38507,11.22013 3.006142,22.40877 4.56461,33.60519 0.0944,1.73177 0.188803,3.46354 0.283204,5.19531 38.565755,0.0127 77.131514,0.0224 115.697264,0.0352 2.73236,-26.79707 4.94033,-53.66177 5.88777,-80.58629 0.16036,-4.77189 0.22782,-9.54592 0.28606,-14.31996 -22.15256,-0.009 -44.30739,0.0174 -66.45852,-0.013 -2.9216,-0.25556 -5.419331,-2.02379 -7.394224,-4.08273 -1.191769,-1.2825 -1.929392,-2.939 -2.535085,-4.567 -0.447026,-0.97727 -0.466633,-2.03252 -0.422718,-3.08607 -0.01586,-6.68938 0.03162,-13.38633 -0.02355,-20.07102 -1.571656,-6.80428 -3.87541,-13.68077 -8.382392,-19.1383 -0.792994,-0.9256 -1.547742,-1.92336 -2.678262,-2.45206 -3.444047,-2.16876 -7.094593,-4.44725 -11.199681,-5.26257 -1.856251,-0.38583 -3.784886,-0.62172 -5.674187,-0.44161 l -0.0984,0.0178 z" />
  </g>
</svg>
