<?xml version="1.0" encoding="UTF-8" standalone="no"?>
<svg
   xmlns:dc="http://purl.org/dc/elements/1.1/"
   xmlns:cc="http://creativecommons.org/ns#"
   xmlns:rdf="http://www.w3.org/1999/02/22-rdf-syntax-ns#"
   xmlns:svg="http://www.w3.org/2000/svg"
   xmlns="http://www.w3.org/2000/svg"
   xmlns:sodipodi="http://sodipodi.sourceforge.net/DTD/sodipodi-0.dtd"
   xmlns:inkscape="http://www.inkscape.org/namespaces/inkscape"
   width="8.5in"
   height="11in"
   viewBox="0 0 215.9 279.4"
   version="1.1"
   id="svg856"
   inkscape:version="1.0.2-2 (e86c870879, 2021-01-15)"
   sodipodi:docname="Mittens.svg">
  <defs
     id="defs850" />
  <sodipodi:namedview
     id="base"
     pagecolor="#ffffff"
     bordercolor="#666666"
     borderopacity="1.0"
     inkscape:pageopacity="0.0"
     inkscape:pageshadow="2"
     inkscape:zoom="0.94811366"
     inkscape:cx="417.84471"
     inkscape:cy="290.67716"
     inkscape:document-units="mm"
     inkscape:current-layer="layer7"
     inkscape:document-rotation="0"
     showgrid="false"
     inkscape:window-width="1920"
     inkscape:window-height="1001"
     inkscape:window-x="-9"
     inkscape:window-y="-9"
     inkscape:window-maximized="1"
     units="in" />
  <metadata
     id="metadata853">
    <rdf:RDF>
      <cc:Work
         rdf:about="">
        <dc:format>image/svg+xml</dc:format>
        <dc:type
           rdf:resource="http://purl.org/dc/dcmitype/StillImage" />
        <dc:title></dc:title>
      </cc:Work>
    </rdf:RDF>
  </metadata>
  <g
     inkscape:groupmode="layer"
     id="layer7"
     inkscape:label="ReF"
     style="display:inline"
     sodipodi:insensitive="true">
    <path
       style="display:inline;fill:none;stroke:#000000;stroke-width:0.1;stroke-linecap:butt;stroke-linejoin:miter;stroke-miterlimit:4;stroke-dasharray:none;stroke-opacity:1"
       d="m 97.00968,87.399145 h 53.98 v 53.980005 h -53.98 z"
       id="path929"
       sodipodi:nodetypes="ccccc" />
    <text
       xml:space="preserve"
       style="font-style:normal;font-weight:normal;font-size:10.5833px;line-height:1.25;font-family:sans-serif;display:inline;fill:#000000;fill-opacity:1;stroke:none;stroke-width:0.264583"
       x="109.79881"
       y="112.32382"
       id="text933"><tspan
         sodipodi:role="line"
         id="tspan1068"
         x="109.79881"
         y="112.32382"
         style="font-style:normal;font-variant:normal;font-weight:normal;font-stretch:normal;font-size:4.23333px;font-family:sans-serif;-inkscape-font-specification:'sans-serif, Normal';font-variant-ligatures:normal;font-variant-caps:normal;font-variant-numeric:normal;font-variant-east-asian:normal">53.98mm Ref</tspan><tspan
         sodipodi:role="line"
         id="tspan1070"
         x="109.79881"
         y="125.55295"
         style="font-style:normal;font-variant:normal;font-weight:normal;font-stretch:normal;font-size:4.23333px;font-family:sans-serif;-inkscape-font-specification:'sans-serif, Normal';font-variant-ligatures:normal;font-variant-caps:normal;font-variant-numeric:normal;font-variant-east-asian:normal" /></text>
    <text
       xml:space="preserve"
       style="font-style:normal;font-variant:normal;font-weight:normal;font-stretch:normal;font-size:4.23333px;line-height:1.25;font-family:sans-serif;-inkscape-font-specification:'sans-serif, Normal';font-variant-ligatures:normal;font-variant-caps:normal;font-variant-numeric:normal;font-variant-east-asian:normal;fill:#000000;fill-opacity:1;stroke:none;stroke-width:0.264583"
       x="62.80899"
       y="7.7145915"
       id="text1076"><tspan
         sodipodi:role="line"
         id="tspan1078"
         x="62.80899"
         y="7.7145915">Project: PepperCake Mitten Pattern R4</tspan></text>
  </g>
  <g
     inkscape:groupmode="layer"
     id="layer4"
     inkscape:label="PartA R1"
     style="display:none"
     sodipodi:insensitive="true">
    <path
       style="fill:none;stroke:#ff0000;stroke-width:0.1;stroke-linecap:butt;stroke-linejoin:miter;stroke-miterlimit:4;stroke-dasharray:none;stroke-opacity:1"
       d="m 158.78918,265.58427 -105.508614,-0.0324 c -7.614495,-57.85584 -6.611295,-46.30902 -8.807844,-79.25047 0.956641,-12.37134 -2.800375,-54.09482 8.999894,-83.65979 7.006895,-17.929447 20.251424,-49.829556 52.606644,-50.804932 27.30953,2.743178 36.60113,13.488731 42.7565,23.323396 7.37195,34.607416 10.34631,74.099356 15.53072,106.519236 -0.99219,27.33962 -2.6285,58.52198 -5.5773,83.905 z"
       id="path2004"
       sodipodi:nodetypes="ccccccccc" />
    <path
       style="fill:none;stroke:#000000;stroke-width:0.1;stroke-linecap:butt;stroke-linejoin:miter;stroke-miterlimit:4;stroke-dasharray:none;stroke-opacity:1"
       d="m 106.07959,46.336678 -3.3e-4,5.5"
       id="path2050"
       sodipodi:nodetypes="cc" />
    <path
       id="path2004-0"
       style="display:inline;fill:none;stroke:#ff0000;stroke-width:0.0915967;stroke-linecap:butt;stroke-linejoin:miter;stroke-miterlimit:4;stroke-dasharray:none;stroke-opacity:1"
       d="m 105.83008,46.341797 c -9.01397,0.247182 -17.9664,2.933067 -25.525557,7.872415 -9.781834,6.309667 -17.097158,15.760857 -22.648108,25.86219 -4.209097,7.653982 -7.528233,15.759593 -10.569414,23.936048 -4.57814,13.08528 -6.448662,26.93924 -7.36237,40.71824 -0.791127,11.9646 -0.594413,23.96027 -0.577067,35.94234 0.02366,1.99933 -0.122236,3.99887 -0.163189,5.99299 0.799833,11.62888 1.385236,23.28446 2.91739,34.84799 2.10839,16.31496 4.339323,32.61378 6.479775,48.92476 -0.17572,0.89215 0.722656,0.55849 1.281351,0.6125 38.016015,0.0125 76.032029,0.022 114.048049,0.0347 1.35401,-11.63414 2.48263,-23.29449 3.31569,-34.97776 1.3227,-18.26053 2.21008,-36.55567 2.84252,-54.84953 -0.34791,-2.18494 -0.68561,-4.37143 -1.01368,-6.55943 -0.0644,-0.48091 -0.18864,-1.32044 -0.27598,-1.93875 -0.20212,-1.39948 -0.43121,-3.02938 -0.6166,-4.28586 -0.34626,-2.57939 -0.71369,-5.19977 -1.03493,-7.69734 C 163.07059,131.48035 160.1952,101.9956 154.01758,73.060547 150.66522,67.5568 146.61926,62.385534 141.4784,58.441326 133.74688,52.396245 124.21293,49.157224 114.64175,47.4673 c -2.87503,-0.485026 -5.7716,-0.930723 -8.67777,-1.131535 l -0.0999,0.0045 z" />
  </g>
  <g
     inkscape:groupmode="layer"
     id="layer5"
     inkscape:label="PartB R1"
     style="display:none"
     sodipodi:insensitive="true">
    <path
       style="fill:none;stroke:#0000ff;stroke-width:0.0911424;stroke-linecap:butt;stroke-linejoin:miter;stroke-miterlimit:4;stroke-dasharray:none;stroke-opacity:1"
       d="m 158.46063,181.67962 -61.142558,-3.1e-4 c -5.613487,0.5641 -8.809925,3.42346 -11.749174,6.4347 -2.211409,3.07435 -3.227877,5.80728 -3.840964,8.42496 v 21.70705 c -2.083528,9.07186 -5.05785,14.26676 -8.038662,17.3962 -3.989247,2.39158 -7.606112,5.23831 -13.570021,5.21642 -10.463678,-1.76186 -12.376974,-3.62068 -15.260415,-6.63366 -3.549341,-4.89207 -4.858479,-10.39699 -5.760176,-15.76239 -1.076,-18.21566 0.03514,-36.78328 0.03514,-36.78328 -0.6582,-31.31676 1.520316,-56.06477 5.237844,-69.39243 5.098993,-17.88571 16.237553,-39.76271 24.811105,-46.98519 2.96228,-2.201697 11.056915,-12.029144 30.990661,-13.464702 8.44229,1.129276 29.85203,2.018189 42.7565,23.323396 6.66662,33.948796 10.32194,72.430516 15.53073,106.519236 z"
       id="path848"
       sodipodi:nodetypes="cccccccccccccccc" />
    <path
       style="display:inline;fill:none;stroke:#000000;stroke-width:0.1;stroke-linecap:butt;stroke-linejoin:miter;stroke-miterlimit:4;stroke-dasharray:none;stroke-opacity:1"
       d="m 106.07959,46.437887 -3.3e-4,5.398791"
       id="path2050-7"
       sodipodi:nodetypes="cc" />
  </g>
  <g
     inkscape:groupmode="layer"
     id="layer2"
     inkscape:label="PartC R1"
     style="display:none"
     sodipodi:insensitive="true">
    <path
       style="display:inline;fill:none;stroke:#ff00ff;stroke-width:0.1;stroke-linecap:butt;stroke-linejoin:miter;stroke-miterlimit:4;stroke-dasharray:none;stroke-opacity:1"
       d="m 164.36653,181.67931 -61.14261,-1.1e-4 c -5.613493,-0.5641 -8.809938,-3.42316 -11.749191,-6.43441 -2.211408,-3.07433 -3.227878,-5.80717 -3.840962,-8.42484 v -21.70708 c -2.083534,-9.07186 -5.057865,-14.26676 -8.03867,-17.39621 -3.989256,-2.39159 -7.606118,-5.23831 -13.570034,-5.21643 -10.463685,1.76187 -12.376985,3.62068 -15.260431,6.63367 -3.549343,4.89208 -4.858477,10.39699 -5.760177,15.7624 -1.137038,18.17208 -0.531733,41.4051 -0.531733,41.4051 1.1237,29.51827 8.952019,78.85399 8.807844,79.25047 l 105.508614,0.0324 c 5.37497,-53.15853 5.57736,-83.90497 5.57736,-83.90497 z"
       id="path848-8"
       sodipodi:nodetypes="cccccccccccccc" />
    <path
       id="path848-8-6"
       style="display:inline;fill:none;stroke:#ff00ff;stroke-width:0.1;stroke-linecap:butt;stroke-linejoin:miter;stroke-miterlimit:4;stroke-dasharray:none;stroke-opacity:1"
       d="m 65.060547,117.08594 c -4.927636,0.8905 -10.059408,1.83658 -14.279009,4.70073 -1.681721,1.16907 -3.195042,2.59825 -4.502928,4.16555 -3.764326,5.15088 -5.610903,11.40486 -6.627123,17.63131 -0.302856,2.12398 -0.286497,4.28636 -0.418931,6.4279 -0.513231,12.33611 -0.519186,24.6912 -0.231932,37.033 0.667135,15.12722 2.385727,30.18334 4.223828,45.20585 1.38507,11.22013 3.006142,22.40877 4.56461,33.60519 0.0944,1.73177 0.188803,3.46354 0.283204,5.19531 38.565755,0.0127 77.131514,0.0224 115.697264,0.0352 2.73236,-26.79707 4.94033,-53.66177 5.88777,-80.58629 0.16036,-4.77189 0.22782,-9.54592 0.28606,-14.31996 -22.15256,-0.009 -44.30739,0.0174 -66.45852,-0.013 -2.9216,-0.25556 -5.419331,-2.02379 -7.394224,-4.08273 -1.191769,-1.2825 -1.929392,-2.939 -2.535085,-4.567 -0.447026,-0.97727 -0.466633,-2.03252 -0.422718,-3.08607 -0.01586,-6.68938 0.03162,-13.38633 -0.02355,-20.07102 -1.571656,-6.80428 -3.87541,-13.68077 -8.382392,-19.1383 -0.792994,-0.9256 -1.547742,-1.92336 -2.678262,-2.45206 -3.444047,-2.16876 -7.094593,-4.44725 -11.199681,-5.26257 -1.856251,-0.38583 -3.784886,-0.62172 -5.674187,-0.44161 l -0.0984,0.0178 z" />
  </g>
  <g
     inkscape:groupmode="layer"
     id="layer1"
     inkscape:label="PartA R2"
     style="display:none"
     sodipodi:insensitive="true">
    <path
       style="display:inline;fill:none;stroke:#000000;stroke-width:0.1;stroke-linecap:butt;stroke-linejoin:miter;stroke-miterlimit:4;stroke-dasharray:none;stroke-opacity:1"
       d="M 158.78918,265.58427 H 47.714729 C 40.100234,207.72843 39.460545,205.27174 39.1338,181.67931 39.054978,154.86575 45.590144,94.939187 54.86793,75.607775 59.398821,67.55866 66.64885,39.06105 106.07931,35 c 31.9885,2.369546 37.63268,18.451647 42.75645,25.755179 6.98124,14.573428 13.8018,70.794861 15.53072,120.924131 -0.99219,27.33962 -2.6285,58.52198 -5.5773,83.905 z"
       id="path2004-8"
       sodipodi:nodetypes="ccccccccc" />
    <path
       style="font-variation-settings:normal;opacity:1;vector-effect:none;fill:none;fill-opacity:1;stroke:#000000;stroke-width:0.1;stroke-linecap:butt;stroke-linejoin:miter;stroke-miterlimit:4;stroke-dasharray:none;stroke-dashoffset:0;stroke-opacity:1;stop-color:#000000;stop-opacity:1"
       d="M 164.36648,181.67931 H 39.1338"
       id="path984"
       sodipodi:nodetypes="cc" />
    <path
       id="path2004-8-2"
       style="display:inline;fill:none;stroke:#000000;stroke-width:0.1;stroke-linecap:butt;stroke-linejoin:miter;stroke-miterlimit:4;stroke-dasharray:none;stroke-opacity:1"
       d="m 105.45508,29.535156 c -10.873093,1.111115 -21.703134,4.309035 -30.824221,10.458985 -7.762042,5.169618 -14.012896,12.409068 -18.500104,20.549773 -2.445572,4.296832 -4.26685,8.906021 -6.509071,13.303629 -3.106254,6.944506 -4.894044,14.38239 -6.55952,21.777823 -3.32906,15.550054 -5.455221,31.332674 -7.095675,47.141894 -1.244811,12.55582 -2.231741,25.15471 -2.326741,37.77765 0.0483,9.95107 0.393045,19.91206 1.479823,29.80916 1.553785,14.41411 3.591936,28.76997 5.451843,43.14666 0.77373,5.86108 1.547543,11.72216 2.321164,17.58325 40.272787,0 80.545572,0 120.818362,0 1.35439,-11.63344 2.48256,-23.29319 3.31569,-34.9758 1.31877,-18.18973 2.20074,-36.41061 2.83665,-54.63552 -0.87055,-24.07558 -2.66214,-48.12367 -5.562,-72.04175 -1.57814,-12.646153 -3.37896,-25.289502 -6.24855,-37.716066 -1.15311,-4.676622 -2.34539,-9.40074 -4.46259,-13.74863 -2.52476,-3.756692 -4.69695,-7.768827 -7.66593,-11.212233 -5.03944,-6.115134 -11.892,-10.581121 -19.32702,-13.228011 -6.64307,-2.397871 -13.6782,-3.581418 -20.70632,-4.040118 -0.14527,0.01643 -0.29053,0.03287 -0.43579,0.0493 z" />
  </g>
  <g
     inkscape:groupmode="layer"
     id="layer3"
     inkscape:label="PartB R2"
     style="display:none"
     sodipodi:insensitive="true">
    <path
       style="display:inline;fill:none;stroke:#000000;stroke-width:0.1;stroke-linecap:butt;stroke-linejoin:miter;stroke-miterlimit:4;stroke-dasharray:none;stroke-opacity:1"
       d="m 90.736,186.004 c -2.769689,2.08474 -5.907736,8.61254 -5.922,10.377 l -0.293,36.243 c -2.035502,7.47379 -4.59097,10.30247 -6.637027,12.29273 -3.612001,3.51348 -8.627901,6.07063 -15.358973,5.94127 -7.2473,-0.48418 -13.963256,-3.18088 -16.995369,-6.59722 -5.573666,-6.27996 -6.25506,-19.22725 -6.271445,-24.27338 L 39.1338,181.67931 c -0.07882,-26.81356 6.456344,-86.74012 15.73413,-106.071532 4.530891,-8.049115 11.78092,-36.546725 51.21138,-40.607775 31.9885,2.369546 37.63268,18.451647 42.75645,25.755179 6.98124,14.573428 13.8018,70.794858 15.53072,120.924128 L 100.318,181.679 c -4.719337,0.42486 -7.179347,2.35568 -9.582,4.325 z"
       id="path2004-8-0"
       sodipodi:nodetypes="cscscssccccccc" />
    <path
       id="path2004-8-0-5"
       style="display:inline;fill:none;stroke:#000000;stroke-width:0.1;stroke-linecap:butt;stroke-linejoin:miter;stroke-miterlimit:4;stroke-dasharray:none;stroke-opacity:1"
       d="m 105.45508,29.535156 c -10.873093,1.111115 -21.703134,4.309035 -30.824221,10.458985 -7.762042,5.169618 -14.012896,12.409068 -18.500104,20.549773 -2.445572,4.296832 -4.26685,8.906021 -6.509071,13.303629 -3.106254,6.944506 -4.894044,14.38239 -6.55952,21.777823 -3.32906,15.550054 -5.455221,31.332674 -7.095675,47.141894 -1.244811,12.55582 -2.231741,25.15471 -2.326741,37.77765 0.03357,13.61344 0.06437,27.2274 0.137607,40.84055 0.213846,6.85785 1.059281,13.82955 3.734364,20.20243 1.613451,3.79791 4.131522,7.32237 7.685223,9.51887 5.104369,3.27719 11.159951,4.8402 17.168679,5.24964 6.25119,0.17976 12.580839,-1.81447 17.433169,-5.79755 3.480502,-2.7815 6.275861,-6.41115 7.978899,-10.53514 0.927564,-2.19778 1.718982,-4.48161 2.23949,-6.80183 0.09747,-12.13711 0.195632,-24.27422 0.293368,-36.41133 0.834836,-2.30329 2.003648,-4.5482 3.673828,-6.35743 1.744662,-1.49269 3.69653,-2.9487 6.055195,-3.19953 2.18721,-0.16807 4.3943,-0.0279 6.58934,-0.0739 21.14974,0 42.29948,0 63.44921,0 -0.46969,-13.94181 -1.15404,-27.8776 -2.23944,-41.78578 -1.50517,-19.29282 -3.49432,-38.5657 -6.63165,-57.667348 -1.43532,-8.281617 -2.9523,-16.588301 -5.53711,-24.601562 -0.69111,-1.911673 -1.30447,-3.897582 -2.39559,-5.622465 -2.5131,-3.852404 -4.78396,-7.897194 -7.86163,-11.3465 -5.27238,-6.176292 -12.42855,-10.547632 -20.1002,-13.079863 -6.26621,-2.092746 -12.84359,-3.163842 -19.42163,-3.59032 -0.14527,0.01643 -0.29053,0.03287 -0.43579,0.0493 z" />
    <path
       style="font-variation-settings:normal;display:inline;vector-effect:none;fill:none;fill-opacity:1;stroke:#000000;stroke-width:0.1;stroke-linecap:butt;stroke-linejoin:miter;stroke-miterlimit:4;stroke-dasharray:none;stroke-dashoffset:0;stroke-opacity:1;stop-color:#000000"
       d="M 164.36648,181.67931 H 39.133801"
       id="path984-7-3-5"
       sodipodi:nodetypes="cc" />
  </g>
  <g
     inkscape:groupmode="layer"
     id="layer6"
     inkscape:label="PartC R2"
     style="display:none"
     sodipodi:insensitive="true">
    <path
       style="display:inline;fill:none;stroke:#000000;stroke-width:0.1;stroke-linecap:butt;stroke-linejoin:miter;stroke-miterlimit:4;stroke-dasharray:none;stroke-opacity:1"
       d="m 90.736002,177.354 c -2.769689,-2.08473 -5.907736,-8.61254 -5.922,-10.37699 l -0.293,-36.24301 c -2.035502,-7.47378 -4.59097,-10.30247 -6.637027,-12.29272 -3.612001,-3.51348 -8.627901,-6.07064 -15.358973,-5.94127 -7.2473,0.48417 -13.963256,3.18088 -16.995369,6.59722 -5.573666,6.27995 -6.25506,19.22724 -6.271445,24.27337 l -0.124386,38.30809 c 0.824057,36.54782 3.513906,40.34695 8.580927,83.90558 l 111.074451,4e-5 c 1.5677,-14.31564 3.83884,-33.7759 5.5773,-83.90562 L 100.318,181.679 c -4.71933,-0.42486 -7.17934,-2.35568 -9.581998,-4.325 z"
       id="path2004-8-0-1"
       sodipodi:nodetypes="cscscsscccccc" />
    <path
       style="display:inline;fill:none;stroke:#000000;stroke-width:0.1;stroke-linecap:butt;stroke-linejoin:miter;stroke-miterlimit:4;stroke-dasharray:none;stroke-opacity:1"
       d="m 106.07959,317.02132 -3.3e-4,-5.5"
       id="path2050-9-7-0"
       sodipodi:nodetypes="cc" />
    <path
       style="font-variation-settings:normal;vector-effect:none;fill:none;fill-opacity:1;stroke:#000000;stroke-width:0.1;stroke-linecap:butt;stroke-linejoin:miter;stroke-miterlimit:4;stroke-dasharray:none;stroke-dashoffset:0;stroke-opacity:1;stop-color:#000000"
       d="M 164.36648,181.67869 H 39.133802"
       id="path984-7-3"
       sodipodi:nodetypes="cc" />
    <path
       style="font-variation-settings:normal;vector-effect:none;fill:none;fill-opacity:1;stroke:#000000;stroke-width:0.1;stroke-linecap:butt;stroke-linejoin:miter;stroke-miterlimit:4;stroke-dasharray:none;stroke-dashoffset:0;stroke-opacity:1;stop-color:#000000"
       d="m 106.07931,328.358 -5e-5,-16.83668"
       id="path1006-9-0"
       sodipodi:nodetypes="cc" />
    <path
       id="path2004-8-0-1-0"
       style="display:inline;fill:none;stroke:#000000;stroke-width:0.1;stroke-linecap:butt;stroke-linejoin:miter;stroke-miterlimit:4;stroke-dasharray:none;stroke-opacity:1"
       d="m 62.490234,107 c -6.050577,0.3792 -12.147468,1.95642 -17.288803,5.24668 -3.756774,2.32462 -6.350035,6.11767 -7.954283,10.16764 -2.521679,6.36107 -3.311716,13.26278 -3.479881,20.0591 -0.04723,13.27949 -0.109319,26.55965 -0.11825,39.83893 0.278771,12.88081 0.944187,25.76929 2.625806,38.55075 1.598081,12.26696 3.466113,24.49845 4.947282,36.78132 0.547275,4.47854 1.072678,8.95979 1.609926,13.43956 40.296224,0 80.592449,0 120.888669,0 1.34203,-12.01919 2.6211,-24.04817 3.46111,-36.11447 1.42532,-19.57154 2.19641,-39.18273 2.89046,-58.79178 -23.18005,-0.007 -46.36179,0.0164 -69.54078,-0.009 -2.281123,-0.15276 -4.312241,-1.34296 -5.99738,-2.81793 -1.6881,-1.31731 -2.641466,-3.32691 -3.588798,-5.19621 -0.41453,-0.8525 -0.772932,-1.74271 -0.643633,-2.70934 -0.09528,-11.83647 -0.191139,-23.67294 -0.286054,-35.50941 -1.397552,-5.23934 -3.475941,-10.49309 -7.3125,-14.44532 C 78.698677,111.18427 73.270856,108.188 67.433792,107.33696 65.801716,107.0707 64.142714,106.97602 62.490234,107 Z" />
  </g>
  <g
     inkscape:groupmode="layer"
     id="layer9"
     inkscape:label="PartA R3"
     style="display:none"
     sodipodi:insensitive="true">
    <path
       style="display:inline;fill:none;stroke:#000000;stroke-width:0.1;stroke-linecap:butt;stroke-linejoin:miter;stroke-miterlimit:4;stroke-dasharray:none;stroke-opacity:1"
       d="M 158.78918,265.58428 H 47.71473 C 40.10023,207.72844 39.46054,205.27174 39.1338,181.67931 39.055,154.86576 45.59014,94.939192 54.86793,75.60778 c 4.53089,-8.049115 11.78092,-36.546725 51.21138,-40.607775 31.9885,2.369546 37.63268,18.451647 42.75645,25.755179 6.98124,14.573428 13.8018,70.794856 15.53072,120.924126 -0.99219,27.33962 -2.6285,58.52198 -5.5773,83.905 z"
       id="path2004-8-6"
       sodipodi:nodetypes="ccccccccc" />
    <path
       style="font-variation-settings:normal;display:inline;vector-effect:none;fill:none;fill-opacity:1;stroke:#000000;stroke-width:0.1;stroke-linecap:butt;stroke-linejoin:miter;stroke-miterlimit:4;stroke-dasharray:none;stroke-dashoffset:0;stroke-opacity:1;stop-color:#000000"
       d="M 164.36648,181.67931 H 39.1338"
       id="path984-6"
       sodipodi:nodetypes="cc" />
    <path
       id="path2004-8-6-0"
       style="display:inline;fill:none;stroke:#000000;stroke-width:0.1;stroke-linecap:butt;stroke-linejoin:miter;stroke-miterlimit:4;stroke-dasharray:none;stroke-opacity:1"
       d="m 105.39844,29.039062 c -10.929633,1.115761 -21.812914,4.331615 -30.988512,10.5008 -7.794455,5.179327 -14.091023,12.4225 -18.613632,20.582303 -2.488826,4.328064 -4.320565,8.986051 -6.585843,13.425592 -3.13974,6.970905 -4.938536,14.445875 -6.617848,21.876254 -3.320141,15.501839 -5.452706,31.233749 -7.091939,46.993999 -1.253976,12.53819 -2.239563,25.11944 -2.359122,37.72495 0.03588,10.03512 0.369431,20.0816 1.461834,30.0629 1.528495,14.28736 3.550178,28.51551 5.393416,42.76448 0.819302,6.20457 1.637535,12.40927 2.458284,18.61364 40.567708,0 81.135412,0 121.703122,0 1.29223,-11.15851 2.41222,-22.33776 3.22386,-33.5421 1.40487,-18.83826 2.32344,-37.71143 2.98122,-56.58876 -0.90768,-24.97952 -2.79493,-49.93097 -5.8932,-74.73652 -1.55457,-11.972278 -3.29809,-23.944883 -6.07456,-35.703473 -1.14009,-4.553044 -2.31394,-9.163194 -4.4255,-13.376081 -2.49801,-3.729678 -4.6601,-7.702494 -7.59546,-11.124284 -5.0604,-6.168064 -11.93945,-10.693226 -19.41594,-13.388179 -6.75614,-2.46471 -13.9197,-3.67441 -21.07556,-4.140628 -0.16154,0.01837 -0.32308,0.03674 -0.48462,0.05511 z" />
  </g>
  <g
     inkscape:groupmode="layer"
     id="layer10"
     inkscape:label="PartB R3"
     style="display:none"
     sodipodi:insensitive="true">
    <path
       style="display:inline;fill:none;stroke:#000000;stroke-width:0.1;stroke-linecap:butt;stroke-linejoin:miter;stroke-miterlimit:4;stroke-dasharray:none;stroke-opacity:1"
       d="m 90.736,186.004 c -2.76969,2.08473 -5.75685,8.62023 -5.922,10.37699 l -3.35157,35.65103 c -1.19187,5.2241 -3.30835,10.69712 -5.35441,12.68737 -3.612,3.51347 -6.85195,6.26796 -13.58302,6.1386 -7.25141,-0.48624 -13.12177,-6.7067 -14.62744,-9.35981 -4.14431,-7.30261 -5.92043,-19.04211 -6.27145,-24.07604 L 39.1338,181.67931 C 39.95786,145.13149 45.262383,97.95373 54.86793,75.60778 69.048691,39.601415 92.505779,37.256077 106.07931,35.000005 c 17.22147,2.144757 31.35987,4.56622 42.75645,25.755179 6.69821,14.118313 13.79226,70.794406 15.53072,120.924126 L 100.318,181.679 c -4.71933,0.42486 -7.17934,2.35568 -9.582,4.325 z"
       id="path2004-8-0-1-7-8"
       sodipodi:nodetypes="cscscssccccccc" />
    <path
       style="font-variation-settings:normal;display:inline;vector-effect:none;fill:none;fill-opacity:1;stroke:#000000;stroke-width:0.1;stroke-linecap:butt;stroke-linejoin:miter;stroke-miterlimit:4;stroke-dasharray:none;stroke-dashoffset:0;stroke-opacity:1;stop-color:#000000"
       d="M 164.36648,181.67931 H 39.1338"
       id="path984-7-3-3-5"
       sodipodi:nodetypes="cc" />
    <path
       id="path2004-8-0-1-7-8-7"
       style="display:inline;fill:none;stroke:#000000;stroke-width:0.1;stroke-linecap:butt;stroke-linejoin:miter;stroke-miterlimit:4;stroke-dasharray:none;stroke-opacity:1"
       d="m 105.11719,29.078125 c -6.829,1.058086 -13.697166,2.283257 -20.138794,4.871372 -8.756168,3.412681 -16.517972,9.19115 -22.495798,16.423241 -5.876261,7.022753 -10.148427,15.236309 -13.487967,23.724109 -3.633842,8.905388 -5.87481,18.30299 -7.79258,27.704943 -3.537873,17.96051 -5.56314,36.18704 -6.87867,54.4347 -0.584582,8.60934 -1.042707,17.23385 -1.174943,25.86117 0.87781,12.38148 1.697965,24.7678 2.611896,37.14625 0.751024,7.11347 2.181577,14.21082 4.833416,20.87328 1.221437,3.03598 2.798461,5.97989 5.128934,8.31546 4.359025,4.59928 10.268239,8.09637 16.707779,8.42433 4.53578,0.13591 9.151412,-1.01776 12.899997,-3.62551 2.195911,-1.55195 4.245047,-3.34428 6.005912,-5.37708 2.576933,-3.36249 3.997136,-7.43875 5.19607,-11.45714 0.517506,-1.79861 0.999606,-3.61545 1.064188,-5.49604 1.060595,-11.24476 2.107922,-22.49191 3.176808,-33.73519 0.831938,-2.28268 1.933459,-4.53736 3.564453,-6.35743 1.675143,-1.42653 3.538715,-2.83291 5.802949,-3.06462 2.36092,-0.14758 4.73971,-0.0232 7.1076,-0.0643 21.11705,0 42.23411,0 63.35117,0 -0.45153,-13.20629 -1.08156,-26.40749 -2.08526,-39.58415 -1.56048,-20.31135 -3.64436,-40.60126 -6.95185,-60.708821 -1.44028,-8.303944 -2.94834,-16.635758 -5.53076,-24.673872 -0.8299,-2.612583 -1.95331,-5.124285 -3.40641,-7.450627 -4.37134,-7.502156 -10.30547,-14.288335 -17.91656,-18.616502 -7.01715,-4.074716 -15.06251,-5.856342 -23.02322,-6.960171 -1.93226,-0.255065 -3.87131,-0.547097 -5.80573,-0.731934 -0.25421,0.0415 -0.50842,0.08301 -0.76263,0.124512 z" />
  </g>
  <g
     inkscape:groupmode="layer"
     id="layer8"
     inkscape:label="PartC R3"
     style="display:none"
     sodipodi:insensitive="true">
    <path
       style="display:inline;fill:none;stroke:#000000;stroke-width:0.1;stroke-linecap:butt;stroke-linejoin:miter;stroke-miterlimit:4;stroke-dasharray:none;stroke-opacity:1"
       d="m 90.736001,177.354 c -2.76969,-2.08473 -5.756846,-8.62023 -5.922,-10.37699 l -3.351572,-35.65103 c -1.191868,-5.2241 -3.308342,-10.69712 -5.354403,-12.68737 -3.612,-3.51348 -6.851955,-6.26797 -13.583025,-6.1386 -7.251412,0.48623 -13.121773,6.70669 -14.627443,9.3598 -4.144308,7.30262 -5.920428,19.04211 -6.27144,24.07604 l -2.492317,35.74284 c 0.82406,36.54782 3.51391,40.34695 8.58093,83.90558 l 111.074449,4e-5 c 1.5677,-14.31564 3.83884,-33.7759 5.5773,-83.90562 L 100.318,181.679 c -4.719329,-0.42486 -7.179339,-2.35568 -9.581999,-4.325 z"
       id="path2004-8-0-1-7"
       sodipodi:nodetypes="cscscsscccccc" />
    <path
       style="display:inline;fill:none;stroke:#000000;stroke-width:0.1;stroke-linecap:butt;stroke-linejoin:miter;stroke-miterlimit:4;stroke-dasharray:none;stroke-opacity:1"
       d="m 106.07959,317.02132 -3.3e-4,-5.5"
       id="path2050-9-7-0-9"
       sodipodi:nodetypes="cc" />
    <path
       style="font-variation-settings:normal;display:inline;vector-effect:none;fill:none;fill-opacity:1;stroke:#000000;stroke-width:0.1;stroke-linecap:butt;stroke-linejoin:miter;stroke-miterlimit:4;stroke-dasharray:none;stroke-dashoffset:0;stroke-opacity:1;stop-color:#000000"
       d="M 164.36648,181.67869 H 39.133801"
       id="path984-7-3-3"
       sodipodi:nodetypes="cc" />
    <path
       id="path2004-8-0-1-7-1"
       style="display:inline;fill:none;stroke:#000000;stroke-width:0.1;stroke-linecap:butt;stroke-linejoin:miter;stroke-miterlimit:4;stroke-dasharray:none;stroke-opacity:1"
       d="m 62.488281,106.5 c -6.388479,0.30123 -12.263448,3.73883 -16.619168,8.27055 -2.232902,2.2197 -3.834454,4.97396 -5.022896,7.87081 -2.728429,6.55581 -4.172731,13.57979 -4.998845,20.61048 -0.535152,6.10103 -0.871209,12.21895 -1.326629,18.32674 -0.452008,6.7494 -0.978271,13.49721 -1.384024,20.24759 0.277386,12.99627 0.92584,26.00191 2.617541,38.89898 1.586514,12.23703 3.455259,24.43648 4.935082,36.68792 0.580425,4.72191 1.131952,9.4474 1.69933,14.17091 40.593099,0 81.186198,0 121.779298,0 1.36657,-12.20681 2.66811,-24.42379 3.51916,-36.67905 1.43477,-19.71648 2.20321,-39.47319 2.90467,-59.2272 -23.34606,-0.007 -46.69383,0.0165 -70.03881,-0.009 -2.183468,-0.15057 -4.112172,-1.31125 -5.722433,-2.72159 -1.476541,-1.14102 -2.284212,-2.90989 -3.135359,-4.52377 -0.547983,-1.12012 -1.077504,-2.28073 -1.051261,-3.55515 -1.09533,-11.53964 -2.149741,-23.08576 -3.270615,-34.62135 -1.124874,-4.73007 -2.583443,-9.48181 -5.214874,-13.6103 -1.445168,-2.19326 -3.506725,-3.88593 -5.512868,-5.54421 -3.555063,-2.86628 -8.057652,-4.46521 -12.616283,-4.57634 -0.513639,-0.0157 -1.027151,-0.0243 -1.541016,-0.0156 z" />
  </g>
  <g
     inkscape:groupmode="layer"
     id="layer11"
     inkscape:label="PartA R4"
     style="display:none"
     sodipodi:insensitive="true">
    <path
       style="display:inline;fill:none;stroke:#000000;stroke-width:0.1;stroke-linecap:butt;stroke-linejoin:miter;stroke-miterlimit:4;stroke-dasharray:none;stroke-opacity:1"
       d="M 148.068,266.72 H 46.994 c -7.6145,-57.85584 -8.254333,-80.31219 -8.581073,-103.90462 -0.0788,-26.81355 6.45634,-86.740113 15.73413,-106.071525 4.53089,-8.049115 11.78092,-36.54673 51.211383,-40.60777 31.9885,2.36954 37.63268,18.451642 42.75645,25.755174 6.98124,14.573428 13.8018,70.794851 15.53072,120.924121 C 162.65342,190.155 155.75265,233.44389 148.068,266.72 Z"
       id="path2004-8-6-8"
       sodipodi:nodetypes="cccccccc" />
    <path
       style="font-variation-settings:normal;display:inline;vector-effect:none;fill:none;fill-opacity:1;stroke:#000000;stroke-width:0.1;stroke-linecap:butt;stroke-linejoin:miter;stroke-miterlimit:4;stroke-dasharray:none;stroke-dashoffset:0;stroke-opacity:1;stop-color:#000000"
       d="M 163.64561,162.81538 H 38.412927"
       id="path984-6-1"
       sodipodi:nodetypes="cc" />
    <path
       id="path2004-8-6-8-1"
       style="display:inline;fill:none;stroke:#000000;stroke-width:0.1;stroke-linecap:butt;stroke-linejoin:miter;stroke-miterlimit:4;stroke-dasharray:none;stroke-opacity:1"
       d="M 104.68359,10.175781 C 93.581877,11.306724 82.517532,14.607002 73.259253,20.971618 65.54174,26.191002 59.350194,33.461692 54.880859,41.599609 c -2.19278,3.865906 -3.865213,7.991533 -5.838575,11.96625 -2.587229,5.198369 -4.167665,10.825114 -5.628222,16.424375 -3.370867,13.592621 -5.495742,27.45901 -7.251892,41.341426 -1.863595,15.24133 -3.250365,30.55541 -3.685608,45.90857 -0.160636,7.05229 0.08223,14.10565 0.264008,21.15527 0.803862,26.96048 3.828501,53.79167 7.19791,80.5338 0.593234,4.59716 1.186322,9.19434 1.78027,13.7914 37.045573,0 74.09115,0 111.13672,0 3.40549,-14.59377 6.41308,-29.2801 8.95495,-44.04913 3.122,-18.1491 5.75171,-36.40238 7.20167,-54.76765 0.26862,-3.9004 0.58337,-7.80636 0.61542,-11.71575 -0.88219,-24.05473 -2.67917,-48.08245 -5.58725,-71.978868 -1.52767,-12.221399 -3.27418,-24.436925 -5.98863,-36.458552 -1.20727,-5.067904 -2.46662,-10.188464 -4.74479,-14.897753 -2.5289,-3.750997 -4.69659,-7.762714 -7.65755,-11.208828 -4.88371,-5.945742 -11.45555,-10.37686 -18.62781,-13.091435 -6.98088,-2.659754 -14.42387,-3.949552 -21.85521,-4.432023 -0.16089,0.01836 -0.32178,0.03671 -0.48268,0.05507 z" />
  </g>
  <g
     inkscape:groupmode="layer"
     id="layer12"
     inkscape:label="PartB R4"
     style="display:none"
     sodipodi:insensitive="true">
    <path
       style="display:inline;fill:none;stroke:#000000;stroke-width:0.1;stroke-linecap:butt;stroke-linejoin:miter;stroke-miterlimit:4;stroke-dasharray:none;stroke-opacity:1"
       d="m 90.01513,167.14007 c -2.76969,2.08473 -5.75685,8.62023 -5.922,10.37699 l -3.35157,35.65103 c -0.437252,7.48795 -3.739446,22.91926 -4.959755,25.31631 -2.94518,5.78521 -7.0622,9.0868 -13.977675,8.5096 -7.25141,-0.48624 -13.516425,-6.31511 -15.022095,-8.96822 -4.14431,-7.30261 -5.525775,-34.43364 -5.876795,-39.46757 L 38.41293,162.81538 C 39.23699,126.26756 44.54151,79.0898 54.14706,56.74385 68.32782,20.737485 91.78491,18.392147 105.35844,16.136075 c 17.22147,2.144757 31.35987,4.56622 42.75645,25.755179 6.69821,14.118313 13.79226,70.794406 15.53072,120.924126 l -64.04848,-3.1e-4 c -4.71933,0.42486 -7.17934,2.35568 -9.582,4.325 z"
       id="path2004-8-0-1-7-8-9"
       sodipodi:nodetypes="cscscssccccccc" />
    <path
       style="font-variation-settings:normal;display:inline;vector-effect:none;fill:none;fill-opacity:1;stroke:#000000;stroke-width:0.1;stroke-linecap:butt;stroke-linejoin:miter;stroke-miterlimit:4;stroke-dasharray:none;stroke-dashoffset:0;stroke-opacity:1;stop-color:#000000"
       d="M 163.64561,162.81538 H 38.41293"
       id="path984-7-3-3-5-3"
       sodipodi:nodetypes="cc" />
    <path
       id="path2004-8-0-1-7-8-9-7"
       style="display:inline;fill:none;stroke:#000000;stroke-width:0.1;stroke-linecap:butt;stroke-linejoin:miter;stroke-miterlimit:4;stroke-dasharray:none;stroke-opacity:1"
       d="m 104.39648,10.214844 c -6.894499,1.067481 -13.829897,2.308667 -20.324773,4.94492 -8.712918,3.428263 -16.423773,9.21079 -22.371421,16.421344 -5.844528,7.009236 -10.099373,15.194712 -13.427917,23.654577 -3.631974,8.905227 -5.874268,18.301378 -7.791021,27.702824 -3.557658,18.058571 -5.587615,36.385911 -6.898777,54.734031 -0.575642,8.50914 -1.024996,17.03318 -1.15679,25.55988 1.05702,15.07899 2.097597,30.15938 3.146976,45.23861 0.668432,8.09453 1.405959,16.2167 3.127446,24.16703 0.89639,3.86524 1.979738,7.91246 4.725401,10.91487 3.975947,4.45683 9.310454,7.82589 15.18963,9.05449 5.039286,0.98896 10.568377,0.44505 14.922514,-2.44195 3.658104,-2.39385 6.337329,-6.07447 8.06333,-10.04462 1.481064,-4.28392 2.325676,-8.7561 3.229,-13.18921 0.936179,-4.86068 1.678452,-9.7624 2.027159,-14.70239 1.066824,-11.30854 2.120383,-22.61946 3.195497,-33.92652 0.831557,-2.28225 1.933998,-4.53386 3.560547,-6.35742 1.678461,-1.42312 3.541366,-2.8354 5.806923,-3.06421 2.261706,-0.15294 4.542346,-0.0241 6.811436,-0.0667 21.21576,0 42.43151,0 63.64727,0 -0.45159,-13.20627 -1.08165,-26.40749 -2.08539,-39.58413 -1.56607,-20.37772 -3.65696,-40.734288 -6.9858,-60.905911 -1.42536,-8.204813 -2.92274,-16.434908 -5.4647,-24.380095 -0.83046,-2.611667 -1.93307,-5.133071 -3.38766,-7.459195 -4.36443,-7.511744 -10.28662,-14.314514 -17.89344,-18.660681 -7.03417,-4.10306 -15.10837,-5.896222 -23.09708,-7.002172 -1.93225,-0.255065 -3.87131,-0.547097 -5.80572,-0.731934 -0.25421,0.0415 -0.50842,0.08301 -0.76264,0.124512 z" />
  </g>
  <g
     inkscape:groupmode="layer"
     id="layer13"
     inkscape:label="PartC R4"
     style="display:inline"
     sodipodi:insensitive="true">
    <path
       style="display:inline;fill:none;stroke:#000000;stroke-width:0.1;stroke-linecap:butt;stroke-linejoin:miter;stroke-miterlimit:4;stroke-dasharray:none;stroke-opacity:1"
       d="m 90.01513,158.49069 c -2.76969,-2.08473 -5.75685,-8.62023 -5.922,-10.37699 l -3.35157,-35.65103 c -0.43725,-7.48795 -3.73944,-22.919257 -4.95975,-25.316307 -2.94518,-5.78521 -7.0622,-9.0868 -13.97768,-8.5096 -7.25141,0.48624 -13.51642,6.31511 -15.02209,8.96822 -4.14431,7.30261 -5.52578,34.433637 -5.8768,39.467567 l -2.49231,35.74283 c 0.966334,36.14132 3.499853,68.632 8.58107,103.90462 h 101.074 c 2.52002,-11.1339 13.37279,-53.44179 15.57761,-103.90462 l -64.04848,3.1e-4 c -4.71933,-0.42486 -7.17934,-2.35568 -9.582,-4.325 z"
       id="path2004-8-0-1-7-8-9-8"
       sodipodi:nodetypes="cscscsscccccc" />
    <path
       style="font-variation-settings:normal;display:inline;vector-effect:none;fill:none;fill-opacity:1;stroke:#000000;stroke-width:0.1;stroke-linecap:butt;stroke-linejoin:miter;stroke-miterlimit:4;stroke-dasharray:none;stroke-dashoffset:0;stroke-opacity:1;stop-color:#000000"
       d="M 163.64561,162.81538 H 38.41293"
       id="path984-7-3-3-5-3-9"
       sodipodi:nodetypes="cc" />
    <path
       id="path2004-8-0-1-7-8-9-8-3"
       style="display:inline;fill:none;stroke:#000000;stroke-width:0.1;stroke-linecap:butt;stroke-linejoin:miter;stroke-miterlimit:4;stroke-dasharray:none;stroke-opacity:1"
       d="m 62.880859,72.576172 c -6.679704,0.04839 -13.019829,3.231952 -17.795649,7.769183 -2.156965,1.993709 -3.92506,4.440476 -4.851768,7.24688 -1.910605,5.438744 -2.665598,11.192814 -3.422662,16.882105 -1.355858,11.08685 -1.831187,22.25247 -2.673883,33.38407 -0.568342,8.34578 -1.19114,16.69022 -1.72542,25.03683 0.737188,27.75187 2.513012,55.488 5.808647,83.05836 1.043478,8.94071 2.296337,17.85487 3.55722,26.7671 37.018229,0 74.036456,0 111.054686,0 3.10536,-13.22618 6.19171,-26.46369 8.62265,-39.83383 4.36573,-23.56657 7.25579,-47.42119 8.2628,-71.3736 0.0772,-1.56627 0.15449,-3.13254 0.23174,-4.69882 -23.3721,-0.007 -46.74592,0.0165 -70.116933,-0.009 -2.208843,-0.15049 -4.150486,-1.33946 -5.776571,-2.76516 -1.44292,-1.14263 -2.240846,-2.88567 -3.081221,-4.4802 -0.547985,-1.12012 -1.077493,-2.28073 -1.051288,-3.55515 C 88.742626,133.49189 87.575565,120.97679 86.391625,108.46526 85.509432,101.6074 84.197382,94.799367 82.433594,88.113281 81.907613,86.031819 81.070012,84.042642 79.901349,82.239308 77.417905,78.046162 73.487625,74.571598 68.720703,73.287109 66.82436,72.755151 64.847948,72.538543 62.880859,72.576172 Z" />
  </g>
</svg>
