<?xml version="1.0" encoding="UTF-8" standalone="no"?>
<svg
   xmlns:dc="http://purl.org/dc/elements/1.1/"
   xmlns:cc="http://creativecommons.org/ns#"
   xmlns:rdf="http://www.w3.org/1999/02/22-rdf-syntax-ns#"
   xmlns:svg="http://www.w3.org/2000/svg"
   xmlns="http://www.w3.org/2000/svg"
   xmlns:sodipodi="http://sodipodi.sourceforge.net/DTD/sodipodi-0.dtd"
   xmlns:inkscape="http://www.inkscape.org/namespaces/inkscape"
   width="210mm"
   height="297mm"
   viewBox="0 0 210 297"
   version="1.1"
   id="svg856"
   inkscape:version="1.0.2-2 (e86c870879, 2021-01-15)"
   sodipodi:docname="Gloves.svg">
  <defs
     id="defs850" />
  <sodipodi:namedview
     id="base"
     pagecolor="#ffffff"
     bordercolor="#666666"
     borderopacity="1.0"
     inkscape:pageopacity="0.0"
     inkscape:pageshadow="2"
     inkscape:zoom="0.94811366"
     inkscape:cx="349.79495"
     inkscape:cy="916.61266"
     inkscape:document-units="mm"
     inkscape:current-layer="layer7"
     inkscape:document-rotation="0"
     showgrid="false"
     inkscape:window-width="1920"
     inkscape:window-height="1001"
     inkscape:window-x="-9"
     inkscape:window-y="-9"
     inkscape:window-maximized="1" />
  <metadata
     id="metadata853">
    <rdf:RDF>
      <cc:Work
         rdf:about="">
        <dc:format>image/svg+xml</dc:format>
        <dc:type
           rdf:resource="http://purl.org/dc/dcmitype/StillImage" />
        <dc:title></dc:title>
      </cc:Work>
    </rdf:RDF>
  </metadata>
  <g
     inkscape:groupmode="layer"
     id="layer7"
     inkscape:label="ReF"
     style="display:inline">
    <path
       style="display:inline;fill:none;stroke:#000000;stroke-width:0.1;stroke-linecap:butt;stroke-linejoin:miter;stroke-miterlimit:4;stroke-dasharray:none;stroke-opacity:1"
       d="M 98.588298,112.26238 H 152.5683 v 53.98 H 98.588298 Z"
       id="path929"
       sodipodi:nodetypes="ccccc" />
    <text
       xml:space="preserve"
       style="font-style:normal;font-weight:normal;font-size:10.5833px;line-height:1.25;font-family:sans-serif;display:inline;fill:#000000;fill-opacity:1;stroke:none;stroke-width:0.264583"
       x="111.37743"
       y="137.18706"
       id="text933"><tspan
         sodipodi:role="line"
         id="tspan1068"
         x="111.37743"
         y="137.18706"
         style="font-style:normal;font-variant:normal;font-weight:normal;font-stretch:normal;font-size:4.23333px;font-family:sans-serif;-inkscape-font-specification:'sans-serif, Normal';font-variant-ligatures:normal;font-variant-caps:normal;font-variant-numeric:normal;font-variant-east-asian:normal">53.98mm Ref</tspan><tspan
         sodipodi:role="line"
         id="tspan1070"
         x="111.37743"
         y="150.41618"
         style="font-style:normal;font-variant:normal;font-weight:normal;font-stretch:normal;font-size:4.23333px;font-family:sans-serif;-inkscape-font-specification:'sans-serif, Normal';font-variant-ligatures:normal;font-variant-caps:normal;font-variant-numeric:normal;font-variant-east-asian:normal" /></text>
    <text
       xml:space="preserve"
       style="font-style:normal;font-variant:normal;font-weight:normal;font-stretch:normal;font-size:4.23333px;line-height:1.25;font-family:sans-serif;-inkscape-font-specification:'sans-serif, Normal';font-variant-ligatures:normal;font-variant-caps:normal;font-variant-numeric:normal;font-variant-east-asian:normal;fill:#000000;fill-opacity:1;stroke:none;stroke-width:0.264583"
       x="63.626343"
       y="279.621"
       id="text1076"><tspan
         sodipodi:role="line"
         id="tspan1078"
         x="63.626343"
         y="279.621">Project: PepperCake Mitten Pattern R2</tspan></text>
  </g>
  <g
     inkscape:groupmode="layer"
     id="layer4"
     inkscape:label="PartA R1"
     style="display:none"
     sodipodi:insensitive="true">
    <path
       style="fill:none;stroke:#ff0000;stroke-width:0.1;stroke-linecap:butt;stroke-linejoin:miter;stroke-miterlimit:4;stroke-dasharray:none;stroke-opacity:1"
       d="m 158.78918,265.58427 -105.508614,-0.0324 c -7.614495,-57.85584 -6.611295,-46.30902 -8.807844,-79.25047 0.956641,-12.37134 -2.800375,-54.09482 8.999894,-83.65979 7.006895,-17.929447 20.251424,-49.829556 52.606644,-50.804932 27.30953,2.743178 36.60113,13.488731 42.7565,23.323396 7.37195,34.607416 10.34631,74.099356 15.53072,106.519236 -0.99219,27.33962 -2.6285,58.52198 -5.5773,83.905 z"
       id="path2004"
       sodipodi:nodetypes="ccccccccc" />
    <path
       style="fill:none;stroke:#000000;stroke-width:0.1;stroke-linecap:butt;stroke-linejoin:miter;stroke-miterlimit:4;stroke-dasharray:none;stroke-opacity:1"
       d="m 106.07959,46.336678 -3.3e-4,5.5"
       id="path2050"
       sodipodi:nodetypes="cc" />
    <path
       id="path2004-0"
       style="display:inline;fill:none;stroke:#ff0000;stroke-width:0.0915967;stroke-linecap:butt;stroke-linejoin:miter;stroke-miterlimit:4;stroke-dasharray:none;stroke-opacity:1"
       d="m 105.83008,46.341797 c -9.01397,0.247182 -17.9664,2.933067 -25.525557,7.872415 -9.781834,6.309667 -17.097158,15.760857 -22.648108,25.86219 -4.209097,7.653982 -7.528233,15.759593 -10.569414,23.936048 -4.57814,13.08528 -6.448662,26.93924 -7.36237,40.71824 -0.791127,11.9646 -0.594413,23.96027 -0.577067,35.94234 0.02366,1.99933 -0.122236,3.99887 -0.163189,5.99299 0.799833,11.62888 1.385236,23.28446 2.91739,34.84799 2.10839,16.31496 4.339323,32.61378 6.479775,48.92476 -0.17572,0.89215 0.722656,0.55849 1.281351,0.6125 38.016015,0.0125 76.032029,0.022 114.048049,0.0347 1.35401,-11.63414 2.48263,-23.29449 3.31569,-34.97776 1.3227,-18.26053 2.21008,-36.55567 2.84252,-54.84953 -0.34791,-2.18494 -0.68561,-4.37143 -1.01368,-6.55943 -0.0644,-0.48091 -0.18864,-1.32044 -0.27598,-1.93875 -0.20212,-1.39948 -0.43121,-3.02938 -0.6166,-4.28586 -0.34626,-2.57939 -0.71369,-5.19977 -1.03493,-7.69734 C 163.07059,131.48035 160.1952,101.9956 154.01758,73.060547 150.66522,67.5568 146.61926,62.385534 141.4784,58.441326 133.74688,52.396245 124.21293,49.157224 114.64175,47.4673 c -2.87503,-0.485026 -5.7716,-0.930723 -8.67777,-1.131535 l -0.0999,0.0045 z" />
  </g>
  <g
     inkscape:groupmode="layer"
     id="layer5"
     inkscape:label="PartB R1"
     style="display:none">
    <path
       style="fill:none;stroke:#0000ff;stroke-width:0.0911424;stroke-linecap:butt;stroke-linejoin:miter;stroke-miterlimit:4;stroke-dasharray:none;stroke-opacity:1"
       d="m 158.46063,181.67962 -61.142558,-3.1e-4 c -5.613487,0.5641 -8.809925,3.42346 -11.749174,6.4347 -2.211409,3.07435 -3.227877,5.80728 -3.840964,8.42496 v 21.70705 c -2.083528,9.07186 -5.05785,14.26676 -8.038662,17.3962 -3.989247,2.39158 -7.606112,5.23831 -13.570021,5.21642 -10.463678,-1.76186 -12.376974,-3.62068 -15.260415,-6.63366 -3.549341,-4.89207 -4.858479,-10.39699 -5.760176,-15.76239 -1.076,-18.21566 0.03514,-36.78328 0.03514,-36.78328 -0.6582,-31.31676 1.520316,-56.06477 5.237844,-69.39243 5.098993,-17.88571 16.237553,-39.76271 24.811105,-46.98519 2.96228,-2.201697 11.056915,-12.029144 30.990661,-13.464702 8.44229,1.129276 29.85203,2.018189 42.7565,23.323396 6.66662,33.948796 10.32194,72.430516 15.53073,106.519236 z"
       id="path848"
       sodipodi:nodetypes="cccccccccccccccc" />
    <path
       style="display:inline;fill:none;stroke:#000000;stroke-width:0.1;stroke-linecap:butt;stroke-linejoin:miter;stroke-miterlimit:4;stroke-dasharray:none;stroke-opacity:1"
       d="m 106.07959,46.437887 -3.3e-4,5.398791"
       id="path2050-7"
       sodipodi:nodetypes="cc" />
  </g>
  <g
     inkscape:groupmode="layer"
     id="layer2"
     inkscape:label="PartC R1"
     style="display:none"
     sodipodi:insensitive="true">
    <path
       style="display:inline;fill:none;stroke:#ff00ff;stroke-width:0.1;stroke-linecap:butt;stroke-linejoin:miter;stroke-miterlimit:4;stroke-dasharray:none;stroke-opacity:1"
       d="m 164.36653,181.67931 -61.14261,-1.1e-4 c -5.613493,-0.5641 -8.809938,-3.42316 -11.749191,-6.43441 -2.211408,-3.07433 -3.227878,-5.80717 -3.840962,-8.42484 v -21.70708 c -2.083534,-9.07186 -5.057865,-14.26676 -8.03867,-17.39621 -3.989256,-2.39159 -7.606118,-5.23831 -13.570034,-5.21643 -10.463685,1.76187 -12.376985,3.62068 -15.260431,6.63367 -3.549343,4.89208 -4.858477,10.39699 -5.760177,15.7624 -1.137038,18.17208 -0.531733,41.4051 -0.531733,41.4051 1.1237,29.51827 8.952019,78.85399 8.807844,79.25047 l 105.508614,0.0324 c 5.37497,-53.15853 5.57736,-83.90497 5.57736,-83.90497 z"
       id="path848-8"
       sodipodi:nodetypes="cccccccccccccc" />
    <path
       id="path848-8-6"
       style="display:inline;fill:none;stroke:#ff00ff;stroke-width:0.1;stroke-linecap:butt;stroke-linejoin:miter;stroke-miterlimit:4;stroke-dasharray:none;stroke-opacity:1"
       d="m 65.060547,117.08594 c -4.927636,0.8905 -10.059408,1.83658 -14.279009,4.70073 -1.681721,1.16907 -3.195042,2.59825 -4.502928,4.16555 -3.764326,5.15088 -5.610903,11.40486 -6.627123,17.63131 -0.302856,2.12398 -0.286497,4.28636 -0.418931,6.4279 -0.513231,12.33611 -0.519186,24.6912 -0.231932,37.033 0.667135,15.12722 2.385727,30.18334 4.223828,45.20585 1.38507,11.22013 3.006142,22.40877 4.56461,33.60519 0.0944,1.73177 0.188803,3.46354 0.283204,5.19531 38.565755,0.0127 77.131514,0.0224 115.697264,0.0352 2.73236,-26.79707 4.94033,-53.66177 5.88777,-80.58629 0.16036,-4.77189 0.22782,-9.54592 0.28606,-14.31996 -22.15256,-0.009 -44.30739,0.0174 -66.45852,-0.013 -2.9216,-0.25556 -5.419331,-2.02379 -7.394224,-4.08273 -1.191769,-1.2825 -1.929392,-2.939 -2.535085,-4.567 -0.447026,-0.97727 -0.466633,-2.03252 -0.422718,-3.08607 -0.01586,-6.68938 0.03162,-13.38633 -0.02355,-20.07102 -1.571656,-6.80428 -3.87541,-13.68077 -8.382392,-19.1383 -0.792994,-0.9256 -1.547742,-1.92336 -2.678262,-2.45206 -3.444047,-2.16876 -7.094593,-4.44725 -11.199681,-5.26257 -1.856251,-0.38583 -3.784886,-0.62172 -5.674187,-0.44161 l -0.0984,0.0178 z" />
  </g>
  <g
     inkscape:groupmode="layer"
     id="layer1"
     inkscape:label="PartA R2"
     style="display:inline"
     sodipodi:insensitive="true">
    <path
       style="display:inline;fill:none;stroke:#000000;stroke-width:0.1;stroke-linecap:butt;stroke-linejoin:miter;stroke-miterlimit:4;stroke-dasharray:none;stroke-opacity:1"
       d="M 158.78918,265.58427 H 47.714729 C 40.100234,207.72843 39.460545,205.27174 39.1338,181.67931 39.054978,154.86575 45.590144,94.939187 54.86793,75.607775 59.398821,67.55866 66.64885,39.06105 106.07931,35 c 31.9885,2.369546 37.63268,18.451647 42.75645,25.755179 6.98124,14.573428 13.8018,70.794861 15.53072,120.924131 -0.99219,27.33962 -2.6285,58.52198 -5.5773,83.905 z"
       id="path2004-8"
       sodipodi:nodetypes="ccccccccc" />
    <path
       style="font-variation-settings:normal;opacity:1;vector-effect:none;fill:none;fill-opacity:1;stroke:#000000;stroke-width:0.1;stroke-linecap:butt;stroke-linejoin:miter;stroke-miterlimit:4;stroke-dasharray:none;stroke-dashoffset:0;stroke-opacity:1;stop-color:#000000;stop-opacity:1"
       d="M 164.36648,181.67931 H 39.1338"
       id="path984"
       sodipodi:nodetypes="cc" />
    <path
       id="path2004-8-2"
       style="display:inline;fill:none;stroke:#000000;stroke-width:0.1;stroke-linecap:butt;stroke-linejoin:miter;stroke-miterlimit:4;stroke-dasharray:none;stroke-opacity:1"
       d="m 105.45508,29.535156 c -10.873093,1.111115 -21.703134,4.309035 -30.824221,10.458985 -7.762042,5.169618 -14.012896,12.409068 -18.500104,20.549773 -2.445572,4.296832 -4.26685,8.906021 -6.509071,13.303629 -3.106254,6.944506 -4.894044,14.38239 -6.55952,21.777823 -3.32906,15.550054 -5.455221,31.332674 -7.095675,47.141894 -1.244811,12.55582 -2.231741,25.15471 -2.326741,37.77765 0.0483,9.95107 0.393045,19.91206 1.479823,29.80916 1.553785,14.41411 3.591936,28.76997 5.451843,43.14666 0.77373,5.86108 1.547543,11.72216 2.321164,17.58325 40.272787,0 80.545572,0 120.818362,0 1.35439,-11.63344 2.48256,-23.29319 3.31569,-34.9758 1.31877,-18.18973 2.20074,-36.41061 2.83665,-54.63552 -0.87055,-24.07558 -2.66214,-48.12367 -5.562,-72.04175 -1.57814,-12.646153 -3.37896,-25.289502 -6.24855,-37.716066 -1.15311,-4.676622 -2.34539,-9.40074 -4.46259,-13.74863 -2.52476,-3.756692 -4.69695,-7.768827 -7.66593,-11.212233 -5.03944,-6.115134 -11.892,-10.581121 -19.32702,-13.228011 -6.64307,-2.397871 -13.6782,-3.581418 -20.70632,-4.040118 -0.14527,0.01643 -0.29053,0.03287 -0.43579,0.0493 z" />
  </g>
  <g
     inkscape:groupmode="layer"
     id="layer3"
     inkscape:label="PartB R2"
     style="display:inline"
     sodipodi:insensitive="true">
    <path
       style="display:inline;fill:none;stroke:#ff0000;stroke-width:0.1;stroke-linecap:butt;stroke-linejoin:miter;stroke-miterlimit:4;stroke-dasharray:none;stroke-opacity:1"
       d="m 90.736,186.004 c -2.769689,2.08474 -5.907736,8.61254 -5.922,10.377 l -0.293,36.243 c -2.035502,7.47379 -4.59097,10.30247 -6.637027,12.29273 -3.612001,3.51348 -8.627901,6.07063 -15.358973,5.94127 -7.2473,-0.48418 -13.963256,-3.18088 -16.995369,-6.59722 -5.573666,-6.27996 -6.25506,-19.22725 -6.271445,-24.27338 L 39.1338,181.67931 c -0.07882,-26.81356 6.456344,-86.74012 15.73413,-106.071532 4.530891,-8.049115 11.78092,-36.546725 51.21138,-40.607775 31.9885,2.369546 37.63268,18.451647 42.75645,25.755179 6.98124,14.573428 13.8018,70.794858 15.53072,120.924128 L 100.318,181.679 c -4.719337,0.42486 -7.179347,2.35568 -9.582,4.325 z"
       id="path2004-8-0"
       sodipodi:nodetypes="cscscssccccccc" />
    <path
       id="path2004-8-0-5"
       style="display:inline;fill:none;stroke:#ff0000;stroke-width:0.1;stroke-linecap:butt;stroke-linejoin:miter;stroke-miterlimit:4;stroke-dasharray:none;stroke-opacity:1"
       d="m 105.45508,29.535156 c -10.873093,1.111115 -21.703134,4.309035 -30.824221,10.458985 -7.762042,5.169618 -14.012896,12.409068 -18.500104,20.549773 -2.445572,4.296832 -4.26685,8.906021 -6.509071,13.303629 -3.106254,6.944506 -4.894044,14.38239 -6.55952,21.777823 -3.32906,15.550054 -5.455221,31.332674 -7.095675,47.141894 -1.244811,12.55582 -2.231741,25.15471 -2.326741,37.77765 0.03357,13.61344 0.06437,27.2274 0.137607,40.84055 0.213846,6.85785 1.059281,13.82955 3.734364,20.20243 1.613451,3.79791 4.131522,7.32237 7.685223,9.51887 5.104369,3.27719 11.159951,4.8402 17.168679,5.24964 6.25119,0.17976 12.580839,-1.81447 17.433169,-5.79755 3.480502,-2.7815 6.275861,-6.41115 7.978899,-10.53514 0.927564,-2.19778 1.718982,-4.48161 2.23949,-6.80183 0.09747,-12.13711 0.195632,-24.27422 0.293368,-36.41133 0.834836,-2.30329 2.003648,-4.5482 3.673828,-6.35743 1.744662,-1.49269 3.69653,-2.9487 6.055195,-3.19953 2.18721,-0.16807 4.3943,-0.0279 6.58934,-0.0739 21.14974,0 42.29948,0 63.44921,0 -0.46969,-13.94181 -1.15404,-27.8776 -2.23944,-41.78578 -1.50517,-19.29282 -3.49432,-38.5657 -6.63165,-57.667348 -1.43532,-8.281617 -2.9523,-16.588301 -5.53711,-24.601562 -0.69111,-1.911673 -1.30447,-3.897582 -2.39559,-5.622465 -2.5131,-3.852404 -4.78396,-7.897194 -7.86163,-11.3465 -5.27238,-6.176292 -12.42855,-10.547632 -20.1002,-13.079863 -6.26621,-2.092746 -12.84359,-3.163842 -19.42163,-3.59032 -0.14527,0.01643 -0.29053,0.03287 -0.43579,0.0493 z" />
  </g>
  <g
     inkscape:groupmode="layer"
     id="layer6"
     inkscape:label="PartC R2"
     style="display:inline"
     sodipodi:insensitive="true">
    <path
       style="display:inline;fill:none;stroke:#0000ff;stroke-width:0.1;stroke-linecap:butt;stroke-linejoin:miter;stroke-miterlimit:4;stroke-dasharray:none;stroke-opacity:1"
       d="m 90.736002,177.354 c -2.769689,-2.08473 -5.907736,-8.61254 -5.922,-10.37699 l -0.293,-36.24301 c -2.035502,-7.47378 -4.59097,-10.30247 -6.637027,-12.29272 -3.612001,-3.51348 -8.627901,-6.07064 -15.358973,-5.94127 -7.2473,0.48417 -13.963256,3.18088 -16.995369,6.59722 -5.573666,6.27995 -6.25506,19.22724 -6.271445,24.27337 l -0.124386,38.30809 c 0.824057,36.54782 3.513906,40.34695 8.580927,83.90558 l 111.074451,4e-5 c 1.5677,-14.31564 3.83884,-33.7759 5.5773,-83.90562 L 100.318,181.679 c -4.71933,-0.42486 -7.17934,-2.35568 -9.581998,-4.325 z"
       id="path2004-8-0-1"
       sodipodi:nodetypes="cscscsscccccc" />
    <path
       style="display:inline;fill:none;stroke:#000000;stroke-width:0.1;stroke-linecap:butt;stroke-linejoin:miter;stroke-miterlimit:4;stroke-dasharray:none;stroke-opacity:1"
       d="m 106.07959,317.02132 -3.3e-4,-5.5"
       id="path2050-9-7-0"
       sodipodi:nodetypes="cc" />
    <path
       style="font-variation-settings:normal;vector-effect:none;fill:none;fill-opacity:1;stroke:#000000;stroke-width:0.1;stroke-linecap:butt;stroke-linejoin:miter;stroke-miterlimit:4;stroke-dasharray:none;stroke-dashoffset:0;stroke-opacity:1;stop-color:#000000"
       d="M 164.36648,181.67869 H 39.133802"
       id="path984-7-3"
       sodipodi:nodetypes="cc" />
    <path
       style="font-variation-settings:normal;vector-effect:none;fill:none;fill-opacity:1;stroke:#000000;stroke-width:0.1;stroke-linecap:butt;stroke-linejoin:miter;stroke-miterlimit:4;stroke-dasharray:none;stroke-dashoffset:0;stroke-opacity:1;stop-color:#000000"
       d="m 106.07931,328.358 -5e-5,-16.83668"
       id="path1006-9-0"
       sodipodi:nodetypes="cc" />
    <path
       id="path2004-8-0-1-0"
       style="display:inline;fill:none;stroke:#0000ff;stroke-width:0.1;stroke-linecap:butt;stroke-linejoin:miter;stroke-miterlimit:4;stroke-dasharray:none;stroke-opacity:1"
       d="m 62.490234,107 c -6.050577,0.3792 -12.147468,1.95642 -17.288803,5.24668 -3.756774,2.32462 -6.350035,6.11767 -7.954283,10.16764 -2.521679,6.36107 -3.311716,13.26278 -3.479881,20.0591 -0.04723,13.27949 -0.109319,26.55965 -0.11825,39.83893 0.278771,12.88081 0.944187,25.76929 2.625806,38.55075 1.598081,12.26696 3.466113,24.49845 4.947282,36.78132 0.547275,4.47854 1.072678,8.95979 1.609926,13.43956 40.296224,0 80.592449,0 120.888669,0 1.34203,-12.01919 2.6211,-24.04817 3.46111,-36.11447 1.42532,-19.57154 2.19641,-39.18273 2.89046,-58.79178 -23.18005,-0.007 -46.36179,0.0164 -69.54078,-0.009 -2.281123,-0.15276 -4.312241,-1.34296 -5.99738,-2.81793 -1.6881,-1.31731 -2.641466,-3.32691 -3.588798,-5.19621 -0.41453,-0.8525 -0.772932,-1.74271 -0.643633,-2.70934 -0.09528,-11.83647 -0.191139,-23.67294 -0.286054,-35.50941 -1.397552,-5.23934 -3.475941,-10.49309 -7.3125,-14.44532 C 78.698677,111.18427 73.270856,108.188 67.433792,107.33696 65.801716,107.0707 64.142714,106.97602 62.490234,107 Z" />
  </g>
</svg>
